<svg width="24" height="24" viewBox="0 0 24 24" fill="none" xmlns="http://www.w3.org/2000/svg">
<path d="M10.0368 18.6311L13.656 22.2527C13.8806 22.4777 14.1589 22.6418 14.4646 22.7293C14.7703 22.8168 15.0933 22.8249 15.4029 22.7528C15.7126 22.6807 15.9988 22.5308 16.2345 22.3173C16.4701 22.1039 16.6474 21.8338 16.7496 21.5327L22.704 3.65749C22.8135 3.32857 22.8294 2.97563 22.7497 2.63821C22.67 2.3008 22.4979 1.99224 22.2528 1.74709C22.0076 1.50193 21.6991 1.32988 21.3616 1.25019C21.0242 1.1705 20.6713 1.18633 20.3424 1.29589L2.47677 7.25029C2.17567 7.35248 1.90561 7.52977 1.69212 7.7654C1.47862 8.00104 1.32875 8.28723 1.25667 8.59692C1.1846 8.90661 1.1927 9.22956 1.2802 9.53525C1.36771 9.84094 1.53174 10.1193 1.75677 10.3439L5.99997 14.3999V21.5999L10.0368 18.6311Z" stroke="#6320EE" stroke-width="2" stroke-linecap="round" stroke-linejoin="round"/>
<path d="M22.1688 1.67041L6 14.4" stroke="#6320EE" stroke-width="2" stroke-linecap="round" stroke-linejoin="round"/>
</svg>
